PathFileType	4	(x/y/z)	S04_PSF_T13.trc
DataRate	CameraRate	NumFrames	NumMarkers	Units	OrigDataRate	OrigDataStartFrame	OrigNumFrames
240	240	8	51	mm	240	109	432
Frame#	Time	Sternum			R.Acromium			L.Acromium			Top.Head			R.ASIS			L.ASIS			R.PSIS			L.PSIS			R.Great.Tro			L.Great.Tro			R.Iliac.Crest			L.Iliac.Crest			V.Sacral			R.Thigh.Upper.Post			R.Thigh.Lower.Ant			R.Thigh.Lower.Post			R.Thigh.Upper.Ant			R.Knee.Lat			R.Knee.Med			R.Shank.Upper.Post			R.Shank.Lower.Ant			R.Shank.Lower.Post			R.Shank.Upper.Ant			R.Ankle.Lat			R.Ankle.Med			R.Heel.Upper			R.Heel.Med			R.Heel.Lat			R.Toe.Lat			R.Toe.Med			R.Toe.Tip			L.Thigh.Upper.Post			L.Thigh.Lower.Ant			L.Thigh.Lower.Post			L.Thigh.Upper.Ant			L.Knee.Lat			L.Knee.Med			L.Shank.Upper.Post			L.Shank.Lower.Ant			L.Shank.Lower.Post			L.Shank.Upper.Ant			L.Ankle.Lat			L.Ankle.Med			L.Heel.Upper			L.Heel.Med			L.Heel.Lat			L.Toe.Lat			L.Toe.Med			L.Toe.Tip			Cervical.Spine			Back			
		X1	Y1	Z1	X2	Y2	Z2	X3	Y3	Z3	X4	Y4	Z4	X5	Y5	Z5	X6	Y6	Z6	X7	Y7	Z7	X8	Y8	Z8	X9	Y9	Z9	X10	Y10	Z10	X11	Y11	Z11	X12	Y12	Z12	X13	Y13	Z13	X14	Y14	Z14	X15	Y15	Z15	X16	Y16	Z16	X17	Y17	Z17	X18	Y18	Z18	X19	Y19	Z19	X20	Y20	Z20	X21	Y21	Z21	X22	Y22	Z22	X23	Y23	Z23	X24	Y24	Z24	X25	Y25	Z25	X26	Y26	Z26	X27	Y27	Z27	X28	Y28	Z28	X29	Y29	Z29	X30	Y30	Z30	X31	Y31	Z31	X32	Y32	Z32	X33	Y33	Z33	X34	Y34	Z34	X35	Y35	Z35	X36	Y36	Z36	X37	Y37	Z37	X38	Y38	Z38	X39	Y39	Z39	X40	Y40	Z40	X41	Y41	Z41	X42	Y42	Z42	X43	Y43	Z43	X44	Y44	Z44	X45	Y45	Z45	X46	Y46	Z46	X47	Y47	Z47	X48	Y48	Z48	X49	Y49	Z49	X50	Y50	Z50	X51	Y51	Z51	

109	0.45	-991.13	1275	240.23	-1114.7	1507	414.34	-1127.6	1486.1	65.986	-1069.8	1828.9	222.19	-1010.5	994.22	373.25	-1027.2	1009.3	123.89	-1231.1	1027.2	294.81	-1233.4	1037.1	212.57	-1090.1	913.39	447.6	-1157.6	929.47	73.25	-1096.4	1086.7	424.27	-1131.2	1089.4	88.972	-1254.6	991.16	254.1	-998.27	667.36	433.88	-901.21	618.07	390.25	-965.87	582.97	416.36	-931.87	723.11	413.29	-920.45	529.81	403.4	-942.49	518.34	274.52	-946.21	297.18	398.29	-860.81	237.9	362.68	-929.11	229.78	384.39	-881.19	304.77	385.1	-886.89	118.58	365.81	-864.27	140.41	279.73	-938.6	73.725	304.87	-917.64	49.263	274.75	-927.22	41.51	338.2	-765.99	73.475	399.88	-723.11	91.539	286.85	-672.14	123.63	339.15	-1206.9	705.63	93.368	-1143.3	597.37	97.602	-1212.1	617.04	105.68	-1142.8	686.73	80.642	-1193.4	513.03	112.97	-1183.5	503.48	235.92	-1302.2	351.24	120.17	-1251.8	252.36	124.01	-1309	273.15	130.38	-1247	328.85	114.32	-1297	105.86	151.99	-1288.3	115.55	243.13	-1372.9	76.606	197.94	-1366.1	50.478	230.19	-1369.8	50.519	168.82	-1187.5	42.724	126.24	-1154.2	44.392	242.67	-1097	52.729	192	-1166.6	1551	243.56	-1255.7	1294.2	232.08
110	0.45417	-985.73	1274	240.26	-1109.2	1506.1	414.59	-1122.2	1485.3	66.183	-1064	1828.1	222.4	-1005	993.27	373.04	-1022.1	1008.4	123.74	-1225.7	1026.5	294.92	-1228.1	1036.4	212.7	-1084.8	912.54	447.57	-1152.9	928.87	73.235	-1090.9	1085.8	424.25	-1126.1	1088.6	88.966	-1249.3	990.42	254.23	-993.73	666.18	433.85	-896.68	616.79	390.43	-961.42	581.78	416.41	-927.28	721.87	413.35	-915.52	528.94	403.57	-937.59	517.08	274.63	-936.09	295.91	398.23	-849.23	238.77	362.66	-917.38	228.98	384.26	-871.24	305.09	385.11	-872.39	118.77	365.53	-850.2	141.2	279.53	-923	72.879	304.5	-901.55	48.892	274.39	-911.01	40.898	337.85	-750.49	76.265	399.57	-708.05	95.353	286.67	-657.77	128.59	338.99	-1203.5	705.54	93.478	-1140.4	596.94	97.707	-1209.1	616.99	105.77	-1139.5	686.31	80.741	-1191	512.84	112.99	-1181.1	503.22	235.93	-1300.8	351.62	120.31	-1250.8	252.47	124.1	-1307.9	273.56	130.52	-1245.7	328.92	114.4	-1296.8	106.08	152.18	-1288	115.78	243.33	-1372.8	76.896	198.18	-1366	50.659	230.39	-1369.7	50.797	169.04	-1187.5	42.731	126.31	-1154.2	44.233	242.73	-1096.9	52.473	192.03	-1161.1	1550.2	243.8	-1250.4	1293.4	232.22
111	0.45833	-980.31	1273.1	240.31	-1103.8	1505.2	414.86	-1116.7	1484.5	66.396	-1058.3	1827.2	222.63	-999.52	992.31	372.83	-1017.1	1007.5	123.6	-1220.2	1025.7	295.04	-1222.8	1035.6	212.84	-1079.5	911.67	447.54	-1148.1	928.26	73.22	-1085.3	1084.8	424.24	-1121	1087.8	88.966	-1243.9	989.65	254.37	-989.19	664.97	433.85	-892.15	615.5	390.62	-956.96	580.56	416.49	-922.69	720.6	413.44	-910.61	528.05	403.76	-932.7	515.82	274.77	-926.09	294.73	398.16	-837.85	239.71	362.64	-905.82	228.29	384.11	-861.45	305.46	385.12	-858.15	119.1	365.23	-836.4	142.12	279.31	-907.63	72.208	304.09	-885.71	48.704	273.99	-895.05	40.463	337.45	-735.32	79.15	399.24	-693.3	99.276	286.5	-643.74	133.62	338.86	-1200	705.44	93.596	-1137.4	596.51	97.806	-1206.1	616.93	105.86	-1136.1	685.87	80.834	-1188.7	512.64	113	-1178.6	502.95	235.95	-1299.4	352.01	120.46	-1249.8	252.59	124.19	-1306.8	273.99	130.67	-1244.3	328.99	114.49	-1296.7	106.32	152.37	-1287.7	116.04	243.52	-1372.8	77.223	198.41	-1365.8	50.87	230.6	-1369.7	51.101	169.25	-1187.5	42.737	126.38	-1154.1	44.081	242.77	-1096.8	52.217	192.06	-1155.6	1549.3	244.05	-1245	1292.6	232.38
112	0.4625	-974.87	1272.1	240.37	-1098.4	1504.3	415.14	-1111.2	1483.7	66.624	-1052.6	1826.4	222.87	-994	991.34	372.62	-1012	1006.5	123.45	-1214.8	1024.9	295.16	-1217.4	1034.8	213	-1074.2	910.8	447.51	-1143.3	927.62	73.206	-1079.8	1083.8	424.23	-1115.8	1087	88.973	-1238.6	988.86	254.52	-984.64	663.74	433.87	-887.6	614.18	390.84	-952.49	579.33	416.58	-918.08	719.33	413.54	-905.7	527.13	403.96	-927.8	514.55	274.91	-916.23	293.63	398.09	-826.67	240.7	362.62	-894.43	227.69	383.95	-851.81	305.87	385.14	-844.19	119.55	364.91	-822.88	143.16	279.09	-892.52	71.692	303.66	-870.16	48.68	273.57	-879.38	40.186	337.03	-720.49	82.11	398.91	-678.89	103.28	286.33	-630.09	138.69	338.75	-1196.5	705.33	93.723	-1134.4	596.07	97.9	-1203	616.87	105.96	-1132.6	685.43	80.92	-1186.3	512.44	113.02	-1176	502.67	235.98	-1297.9	352.4	120.61	-1248.8	252.71	124.29	-1305.7	274.44	130.8	-1242.9	329.06	114.57	-1296.6	106.57	152.56	-1287.4	116.3	243.71	-1372.7	77.591	198.65	-1365.7	51.114	230.81	-1369.6	51.435	169.47	-1187.5	42.742	126.45	-1153.9	43.935	242.82	-1096.7	51.959	192.09	-1150.1	1548.5	244.32	-1239.5	1291.8	232.55
113	0.46667	-969.41	1271.1	240.45	-1092.9	1503.4	415.43	-1105.7	1482.9	66.868	-1046.9	1825.5	223.13	-988.46	990.36	372.41	-1006.9	1005.6	123.32	-1209.3	1024	295.29	-1211.9	1033.9	213.16	-1068.8	909.91	447.47	-1138.5	926.98	73.195	-1074.2	1082.8	424.23	-1110.7	1086.2	88.988	-1233.1	988.05	254.68	-980.05	662.51	433.91	-883.02	612.87	391.06	-947.98	578.09	416.69	-913.45	718.04	413.66	-900.78	526.2	404.18	-922.86	513.28	275.06	-906.49	292.61	398.01	-815.7	241.73	362.6	-883.25	227.19	383.77	-842.32	306.3	385.15	-830.52	120.09	364.58	-809.65	144.29	278.85	-877.71	71.313	303.21	-854.91	48.798	273.13	-864.02	40.045	336.59	-706.04	85.121	398.58	-664.85	107.34	286.16	-616.81	143.77	338.65	-1192.9	705.2	93.857	-1131.3	595.62	97.988	-1199.9	616.79	106.06	-1129.2	684.99	80.999	-1183.8	512.24	113.03	-1173.4	502.38	236	-1296.3	352.81	120.75	-1247.8	252.84	124.38	-1304.5	274.92	130.91	-1241.5	329.13	114.66	-1296.4	106.85	152.75	-1287.1	116.59	243.9	-1372.7	78.001	198.88	-1365.5	51.397	231.02	-1369.5	51.8	169.68	-1187.5	42.748	126.53	-1153.8	43.796	242.86	-1096.6	51.7	192.12	-1144.5	1547.6	244.61	-1234.1	1290.9	232.72
114	0.47083	-963.93	1270.2	240.54	-1087.4	1502.4	415.73	-1100.2	1482.1	67.127	-1041.2	1824.6	223.42	-982.89	989.37	372.21	-1001.7	1004.6	123.18	-1203.7	1023.2	295.43	-1206.4	1033	213.35	-1063.4	909.02	447.44	-1133.7	926.32	73.187	-1068.6	1081.8	424.23	-1105.5	1085.4	89.012	-1227.7	987.21	254.85	-975.41	661.28	433.97	-878.39	611.55	391.29	-943.42	576.86	416.81	-908.76	716.76	413.79	-895.83	525.27	404.4	-917.9	512.02	275.22	-896.91	291.67	397.92	-804.96	242.78	362.57	-872.27	226.77	383.58	-832.99	306.75	385.17	-817.19	120.71	364.23	-796.75	145.49	278.61	-863.23	71.05	302.74	-840.01	49.034	272.67	-849.01	40.017	336.12	-691.98	88.159	398.24	-651.2	111.43	286	-603.93	148.83	338.57	-1189.3	705.07	93.999	-1128.2	595.17	98.069	-1196.7	616.7	106.18	-1125.6	684.53	81.071	-1181.2	512.02	113.05	-1170.7	502.09	236.03	-1294.7	353.22	120.9	-1246.7	252.98	124.46	-1303.2	275.42	131	-1240	329.21	114.74	-1296.3	107.14	152.93	-1286.8	116.89	244.08	-1372.6	78.457	199.11	-1365.4	51.723	231.22	-1369.3	52.2	169.9	-1187.5	42.753	126.6	-1153.7	43.663	242.89	-1096.5	51.44	192.15	-1139	1546.7	244.92	-1228.7	1290.1	232.9
115	0.475	-958.43	1269.2	240.64	-1081.9	1501.5	416.05	-1094.7	1481.2	67.401	-1035.5	1823.7	223.73	-977.31	988.38	372	-996.6	1003.6	123.06	-1198.2	1022.3	295.58	-1200.8	1032.1	213.55	-1058	908.12	447.41	-1128.8	925.64	73.183	-1063	1080.7	424.23	-1100.3	1084.5	89.046	-1222.2	986.35	255.04	-970.71	660.05	434.05	-873.7	610.26	391.52	-938.79	575.63	416.93	-904.02	715.49	413.92	-890.84	524.35	404.62	-912.88	510.79	275.37	-887.47	290.8	397.82	-794.46	243.83	362.53	-861.52	226.42	383.37	-823.82	307.21	385.19	-804.21	121.39	363.88	-784.2	146.73	278.35	-849.11	70.88	302.26	-825.49	49.364	272.2	-834.37	40.081	335.64	-678.33	91.199	397.91	-637.96	115.49	285.84	-591.47	153.82	338.5	-1185.6	704.92	94.147	-1125.1	594.72	98.143	-1193.5	616.6	106.29	-1122.1	684.07	81.136	-1178.6	511.8	113.07	-1168	501.78	236.06	-1293.1	353.64	121.05	-1245.6	253.13	124.54	-1301.9	275.95	131.06	-1238.5	329.29	114.82	-1296.1	107.45	153.11	-1286.5	117.21	244.25	-1372.5	78.961	199.33	-1365.2	52.096	231.42	-1369.2	52.639	170.1	-1187.4	42.757	126.67	-1153.6	43.537	242.92	-1096.4	51.178	192.17	-1133.5	1545.8	245.24	-1223.2	1289.2	233.09
116	0.47917	-952.91	1268.2	240.76	-1076.4	1500.5	416.38	-1089.2	1480.4	67.69	-1029.9	1822.9	224.06	-971.71	987.38	371.81	-991.44	1002.7	122.94	-1192.6	1021.4	295.74	-1195.2	1031.2	213.78	-1052.4	907.21	447.38	-1124	924.96	73.186	-1057.4	1079.7	424.24	-1095	1083.7	89.091	-1216.6	985.48	255.25	-965.93	658.84	434.15	-868.93	608.99	391.73	-934.08	574.41	417.06	-899.22	714.25	414.06	-885.79	523.43	404.83	-907.8	509.58	275.52	-878.2	290	397.72	-784.21	244.87	362.49	-851	226.13	383.15	-814.82	307.66	385.2	-791.6	122.11	363.52	-772.01	148	278.09	-835.39	70.782	301.77	-811.37	49.76	271.72	-820.15	40.214	335.15	-665.13	94.21	397.58	-625.14	119.51	285.67	-579.43	158.71	338.44	-1181.9	704.77	94.302	-1121.9	594.26	98.21	-1190.2	616.48	106.42	-1118.5	683.6	81.193	-1175.9	511.58	113.09	-1165.2	501.46	236.09	-1291.4	354.07	121.19	-1244.4	253.28	124.62	-1300.5	276.5	131.11	-1236.9	329.37	114.89	-1295.9	107.79	153.27	-1286.1	117.55	244.41	-1372.5	79.513	199.53	-1365.1	52.521	231.61	-1369.1	53.119	170.29	-1187.4	42.761	126.74	-1153.4	43.418	242.95	-1096.2	50.914	192.2	-1127.9	1544.9	245.58	-1217.7	1288.3	233.28
